<svg width="1415" height="795" viewBox="0 0 1415 795" fill="none" xmlns="http://www.w3.org/2000/svg">
<g opacity="0.05">
<path opacity="0.91" d="M275.117 180.125C-60.0647 -113.596 -178.262 51.4697 -186.528 64.0501C-186.874 64.577 -186.997 65.1239 -186.991 65.7543L-183.061 488.638C-181.901 613.457 -81.271 715.781 40.5524 688.575C179.056 657.644 341.425 586.378 397.401 422.846C451.187 265.713 301.966 203.652 275.117 180.125Z" fill="#6FCF97"/>
</g>
<g opacity="0.91" filter="url(#filter0_d_1726_7)">
<path d="M317.788 755.867C196.465 649.574 114.184 625.574 61.4204 629.374C8.69229 633.171 -14.8311 664.753 -18.5997 670.342C-18.8828 670.762 -18.9949 671.204 -18.9893 671.809L-17.0819 876.99C-16.3893 951.5 15.1833 1020.94 63.5791 1064.24C111.946 1107.52 177.093 1124.68 245.14 1094.76C315.219 1063.95 379.206 1013.87 407.059 932.518C416.852 903.915 417.387 879.696 412.423 859.19C407.458 838.677 396.972 821.815 384.625 807.957C372.275 794.096 358.076 783.258 345.711 774.798C340.866 771.483 336.312 768.54 332.257 765.919C331.136 765.194 330.052 764.493 329.011 763.817C324.232 760.71 320.31 758.076 317.788 755.867Z" stroke="#4F4F4F" stroke-width="2"/>
</g>
<g opacity="0.91" filter="url(#filter1_d_1726_7)">
<path d="M300.447 755.115C57.6278 542.377 -29.7041 658.327 -37.4288 669.783C-37.8512 670.409 -37.9963 671.063 -37.9893 671.819L-36.0819 876.999C-34.6917 1026.54 90.6375 1155.87 227.543 1095.68C297.772 1064.8 362.03 1014.55 390.005 932.842C429.397 817.785 320.11 772.342 300.447 755.115Z" fill="#6FCF97"/>
</g>
<path d="M1160.42 97.0216C1127.25 115.991 1103.86 147.896 1075.51 173.508C1040.25 205.239 997.335 227.241 950.99 237.348C912.99 245.571 873.287 245.693 836.67 258.628C765.23 283.693 716.302 358.082 715.07 433.717C713.839 509.352 756.87 582.677 820.118 624.142C841.658 638.272 865.239 649.011 890.038 655.986C936.55 669.074 985.874 668.496 1033.94 663.495C1116.96 654.846 1203.99 607.696 1256.33 541.226C1279.66 511.518 1299.37 479.143 1315.06 444.782C1340.98 388.283 1355.7 327.296 1358.41 265.194C1360.61 211.994 1358.41 153.018 1316.2 114.243C1273.99 75.468 1209.89 68.704 1160.42 97.0216Z" fill="#F9F9F9" fill-opacity="0.02"/>
<path d="M1213 702.67C1272.94 702.67 1321.52 689.583 1321.52 673.44C1321.52 657.297 1272.94 644.211 1213 644.211C1153.06 644.211 1104.47 657.297 1104.47 673.44C1104.47 689.583 1153.06 702.67 1213 702.67Z" fill="#ECECEC"/>
<path d="M1302.87 471.99H768.301L708.382 525.266" stroke="#27AE60" stroke-width="2.10526" stroke-linecap="round" stroke-linejoin="round"/>
<path d="M768.636 434.69V331.102" stroke="#27AE60" stroke-width="2.10526" stroke-linecap="round" stroke-linejoin="round"/>
<path d="M768.636 465.971V445.938" stroke="#27AE60" stroke-width="2.10526" stroke-linecap="round" stroke-linejoin="round"/>
<path d="M1270.69 219.974C1270.69 219.974 1270.69 213.712 1261.92 204.957C1253.15 196.202 1247.53 191.186 1247.53 191.186C1247.53 191.186 1243.13 205.58 1251.28 214.35C1257.26 220.528 1263.76 226.193 1270.69 231.283V219.974Z" fill="#92E3A9"/>
<path d="M1257.97 259.084C1257.97 259.084 1257.97 252.822 1249.2 244.051C1240.43 235.281 1234.8 230.28 1234.8 230.28C1234.8 230.28 1230.42 244.674 1238.56 253.445C1244.55 259.62 1251.04 265.288 1257.97 270.393V259.084Z" fill="#92E3A9"/>
<path d="M1270.13 230.645C1270.13 230.645 1270.8 224.413 1280.43 216.615C1290.07 208.818 1296.21 204.455 1296.21 204.455C1296.21 204.455 1299.04 219.275 1290.02 227.088C1283.42 232.586 1276.37 237.523 1268.94 241.847L1270.13 230.645Z" fill="#92E3A9"/>
<path d="M1254.76 276.822C1254.76 276.822 1256.08 270.742 1266.48 263.963C1276.88 257.184 1283.43 253.506 1283.43 253.506C1283.43 253.506 1284.69 268.508 1274.95 275.378C1267.8 280.152 1260.27 284.316 1252.43 287.827L1254.76 276.822Z" fill="#92E3A9"/>
<path d="M1257.66 327.15C1257.66 327.15 1257.66 320.887 1266.42 312.132C1275.17 303.377 1280.81 298.361 1280.81 298.361C1280.81 298.361 1285.21 312.77 1277.06 321.526C1271.08 327.712 1264.59 333.382 1257.66 338.474V327.15Z" fill="#92E3A9"/>
<path d="M1257.51 339.446C1257.51 339.446 1258.39 333.245 1250.96 323.334C1243.53 313.424 1238.68 307.648 1238.68 307.648C1238.68 307.648 1232.32 321.328 1239.12 331.117C1244.17 338.069 1249.79 344.588 1255.93 350.603L1257.51 339.446Z" fill="#92E3A9"/>
<path d="M1248.86 375.85C1248.86 375.85 1248.86 369.603 1257.63 360.833C1266.4 352.062 1272.03 347.153 1272.03 347.153C1272.03 347.153 1276.42 361.547 1268.27 370.302C1262.29 376.486 1255.8 382.155 1248.86 387.25V375.85Z" fill="#92E3A9"/>
<path d="M1254.71 408.88C1254.71 408.88 1253.19 402.8 1259.41 392.16C1265.63 381.52 1269.85 375.212 1269.85 375.212C1269.85 375.212 1277.73 388.041 1272.09 398.574C1267.86 406.061 1263.01 413.179 1257.59 419.854L1254.71 408.88Z" fill="#92E3A9"/>
<path d="M1271.48 218.424C1271.04 224.938 1270.24 231.424 1269.08 237.85C1265.61 255.755 1256.92 267.307 1253.48 283.45C1250.05 299.592 1259.97 320.462 1257.31 341.21C1254.65 361.958 1246.55 373.525 1248.83 387.387C1251.11 401.25 1263.27 438.763 1263.27 438.763" stroke="#263238" stroke-width="1.78978" stroke-linecap="round" stroke-linejoin="round"/>
<path d="M1270.05 234.81L1279.49 227.544" stroke="#263238" stroke-width="1.78978" stroke-linecap="round" stroke-linejoin="round"/>
<path d="M1270.48 226.465L1266.54 219.427" stroke="#263238" stroke-width="1.78978" stroke-linecap="round" stroke-linejoin="round"/>
<path d="M1254.02 282.72C1254.02 282.72 1261.92 276.777 1270.05 270.849" stroke="#263238" stroke-width="1.78978" stroke-linecap="round" stroke-linejoin="round"/>
<path d="M1257.97 270.317C1257.97 270.317 1251.37 257.397 1243.91 248.824" stroke="#263238" stroke-width="1.78978" stroke-linecap="round" stroke-linejoin="round"/>
<path d="M1257.97 336.057C1262.5 327.74 1268.2 320.121 1274.92 313.439" stroke="#263238" stroke-width="1.78978" stroke-linecap="round" stroke-linejoin="round"/>
<path d="M1256.43 344.842C1254.01 339.187 1251.12 333.742 1247.8 328.563C1243.24 321.754 1242.51 320.872 1242.51 320.872" stroke="#263238" stroke-width="1.78978" stroke-linecap="round" stroke-linejoin="round"/>
<path d="M1248.86 387.372C1250.87 382.395 1253.25 377.578 1255.99 372.962C1258.73 368.665 1261.81 364.598 1265.2 360.802" stroke="#263238" stroke-width="1.78978" stroke-linecap="round" stroke-linejoin="round"/>
<path d="M1257.57 419.778C1257.11 415.029 1257.93 410.243 1259.94 405.916C1263.24 399.547 1266.97 391.187 1268.52 387.904" stroke="#263238" stroke-width="1.78978" stroke-linecap="round" stroke-linejoin="round"/>
<path d="M1213.29 303.605C1213.29 303.605 1212.61 299.698 1217.16 293.238C1221.7 286.778 1224.76 283.024 1224.76 283.024C1224.76 283.024 1229.06 291.566 1224.91 297.95C1221.82 302.468 1218.37 306.719 1214.57 310.658L1213.29 303.605Z" fill="#92E3A9"/>
<path d="M1225.52 326.8C1225.52 326.8 1224.83 322.863 1229.38 316.418C1233.92 309.974 1236.98 306.219 1236.98 306.219C1236.98 306.219 1241.28 314.777 1237.13 321.146C1234.05 325.667 1230.59 329.918 1226.79 333.853L1225.52 326.8Z" fill="#92E3A9"/>
<path d="M1214.8 310.232C1214.8 310.232 1213.74 306.402 1206.82 302.632C1199.9 298.862 1195.6 296.704 1195.6 296.704C1195.6 296.704 1195.43 306.234 1201.96 310.232C1206.69 312.964 1211.65 315.293 1216.78 317.194L1214.8 310.232Z" fill="#92E3A9"/>
<path d="M1229.45 337.516C1229.45 337.516 1227.93 333.822 1220.7 330.737C1213.46 327.651 1208.92 326.025 1208.92 326.025C1208.92 326.025 1209.75 335.555 1216.64 338.808C1221.64 341.025 1226.81 342.82 1232.11 344.174L1229.45 337.516Z" fill="#92E3A9"/>
<path d="M1233.1 369.36C1233.1 369.36 1232.42 365.438 1225.97 360.894C1219.53 356.349 1215.44 353.81 1215.44 353.81C1215.44 353.81 1214.25 363.341 1220.32 367.931C1224.74 371.142 1229.42 373.974 1234.32 376.398L1233.1 369.36Z" fill="#92E3A9"/>
<path d="M1234.51 377.097C1234.51 377.097 1233.28 373.312 1236.87 366.29C1240.46 359.267 1242.95 355.118 1242.95 355.118C1242.95 355.118 1248.42 362.961 1245.23 369.877C1242.8 374.785 1239.96 379.483 1236.75 383.922L1234.51 377.097Z" fill="#92E3A9"/>
<path d="M1245.52 408.758C1245.52 408.758 1245.97 404.806 1252.15 399.897C1258.32 394.987 1262.25 392.297 1262.25 392.297C1262.25 392.297 1263.99 401.721 1258.2 406.676C1253.97 410.135 1249.46 413.236 1244.71 415.948L1245.52 408.758Z" fill="#92E3A9"/>
<path d="M1243.89 399C1243.89 399 1243.21 395.063 1236.76 390.518C1230.32 385.974 1226.25 383.45 1226.25 383.45C1226.25 383.45 1225.06 392.981 1231.11 397.571C1235.54 400.78 1240.22 403.612 1245.12 406.038L1243.89 399Z" fill="#92E3A9"/>
<path d="M1243.8 420.341C1243.8 420.341 1244.15 416.358 1239.06 410.339C1233.97 404.32 1230.67 400.809 1230.67 400.809C1230.67 400.809 1227.11 409.701 1231.81 415.705C1235.28 419.939 1239.09 423.879 1243.21 427.485L1243.8 420.341Z" fill="#92E3A9"/>
<path d="M1212.61 302.693C1213.6 306.734 1214.81 310.718 1216.24 314.625C1220.35 325.462 1227.04 331.77 1230.96 341.529C1234.88 351.287 1230.96 365.438 1234.83 378.161C1238.71 390.883 1245.09 397.222 1245.14 406.205C1245.18 415.188 1241.72 440.01 1241.72 440.01" stroke="#263238" stroke-width="1.78978" stroke-linecap="round" stroke-linejoin="round"/>
<path d="M1215.3 312.831L1208.6 309.32" stroke="#263238" stroke-width="1.78978" stroke-linecap="round" stroke-linejoin="round"/>
<path d="M1214.11 307.648L1215.83 302.814" stroke="#263238" stroke-width="1.78978" stroke-linecap="round" stroke-linejoin="round"/>
<path d="M1230.56 341.118C1230.56 341.118 1224.95 338.261 1219.22 335.418" stroke="#263238" stroke-width="1.78978" stroke-linecap="round" stroke-linejoin="round"/>
<path d="M1226.73 333.853C1228.38 328.65 1230.55 323.628 1233.22 318.866" stroke="#263238" stroke-width="1.78978" stroke-linecap="round" stroke-linejoin="round"/>
<path d="M1233.87 375.014C1230.13 370.292 1225.73 366.135 1220.8 362.672" stroke="#263238" stroke-width="1.78978" stroke-linecap="round" stroke-linejoin="round"/>
<path d="M1235.79 380.365C1236.68 376.567 1237.88 372.85 1239.39 369.254C1241.51 364.466 1241.87 363.842 1241.87 363.842" stroke="#263238" stroke-width="1.78978" stroke-linecap="round" stroke-linejoin="round"/>
<path d="M1244.85 412.984C1247.02 410.282 1249.44 407.78 1252.05 405.506C1253.72 404.27 1255.29 402.903 1256.74 401.417" stroke="#263238" stroke-width="1.78978" stroke-linecap="round" stroke-linejoin="round"/>
<path d="M1245.14 406.205C1243.32 403.305 1241.29 400.546 1239.06 397.951C1236.88 395.567 1234.5 393.366 1231.96 391.37" stroke="#263238" stroke-width="1.78978" stroke-linecap="round" stroke-linejoin="round"/>
<path d="M1243.24 427.485C1243 424.442 1241.95 421.52 1240.2 419.018C1237.43 415.37 1234.12 410.537 1232.87 408.637" stroke="#263238" stroke-width="1.78978" stroke-linecap="round" stroke-linejoin="round"/>
<path d="M1272.39 482.813H1232.48C1231.68 482.813 1230.92 482.503 1230.35 481.949C1229.79 481.396 1229.46 480.642 1229.44 479.849L1223.71 435.678H1281.04L1275.31 479.849C1275.29 480.621 1274.98 481.358 1274.44 481.908C1273.9 482.459 1273.16 482.782 1272.39 482.813Z" fill="#263238"/>
<path d="M1280.58 443.141H1223.77C1222.58 443.145 1221.45 442.68 1220.61 441.848C1219.77 441.016 1219.29 439.885 1219.28 438.702C1219.3 437.522 1219.78 436.395 1220.61 435.559C1221.45 434.722 1222.57 434.242 1223.75 434.218H1280.58C1281.17 434.216 1281.76 434.331 1282.3 434.554C1282.84 434.778 1283.34 435.107 1283.75 435.522C1284.17 435.937 1284.5 436.43 1284.73 436.974C1284.95 437.517 1285.07 438.099 1285.07 438.687C1285.07 439.274 1284.95 439.855 1284.72 440.396C1284.5 440.938 1284.17 441.429 1283.75 441.843C1283.33 442.256 1282.84 442.584 1282.3 442.806C1281.75 443.029 1281.17 443.143 1280.58 443.141Z" fill="#263238"/>
<path d="M1166.6 607.635C1152.45 624.654 1135.59 639.215 1116.69 650.727C1110.8 654.251 1104.71 657.428 1098.45 660.242C1055.26 679.653 1006.04 680.914 960.019 669.758C863.24 646.304 811.895 560.88 805.374 466.047C803.626 440.42 799.704 412.741 810.086 388.36C820.468 363.979 841.459 348.84 865.201 338.322C882.438 330.646 901.058 325.493 917.976 321.282C948.592 313.719 980.886 317.051 1009.31 330.706C1029.21 340.146 1043.38 356.546 1060.11 370.363C1061.88 371.822 1063.67 373.277 1065.46 374.726C1082.37 388.333 1100.14 400.828 1118.66 412.133C1146.8 429.294 1175.6 445.482 1193.58 474.301C1222.26 520.235 1198.07 570.243 1166.6 607.635Z" fill="#92E3A9"/>
<path opacity="0.4" d="M1166.6 607.635C1152.45 624.654 1135.59 639.215 1116.69 650.727C1110.8 654.251 1104.71 657.428 1098.45 660.242C1055.26 679.653 1006.04 680.914 960.019 669.758C863.24 646.304 811.895 560.88 805.374 466.047C803.626 440.42 799.704 412.741 810.086 388.36C820.468 363.979 841.459 348.84 865.201 338.322C882.438 330.646 901.058 325.493 917.976 321.282C948.592 313.719 980.886 317.051 1009.31 330.706C1029.21 340.146 1043.38 356.546 1060.11 370.363C1061.88 371.822 1063.67 373.277 1065.46 374.726C1082.37 388.333 1100.14 400.828 1118.66 412.133C1146.8 429.294 1175.6 445.482 1193.58 474.301C1222.26 520.235 1198.07 570.243 1166.6 607.635Z" fill="white"/>
<path d="M1065.4 374.726C1063.61 373.287 1061.82 371.827 1060.05 370.348C1043.33 356.501 1029.13 340.146 1009.25 330.706C980.823 317.059 948.531 313.727 917.915 321.282C877.681 331.269 827.779 346.651 809.995 388.375C799.613 412.695 803.535 440.42 805.298 466.047C811.895 560.88 863.241 646.304 960.019 669.758C1012.67 682.526 1069.46 679.03 1116.69 650.727C1135.59 639.215 1152.45 624.654 1166.6 607.635C1198.07 570.243 1222.26 520.235 1193.61 474.301C1175.65 445.421 1146.84 429.294 1118.69 412.133C1100.14 400.831 1082.34 388.336 1065.4 374.726V374.726Z" stroke="#263238" stroke-width="1.52" stroke-miterlimit="10"/>
<path d="M918.797 543.826C910.739 546.264 902.92 549.429 895.434 553.28" stroke="#263238" stroke-width="1.52" stroke-linecap="round" stroke-linejoin="round"/>
<path d="M968.121 534.432C956.35 535.451 944.668 537.305 933.161 539.98" stroke="#263238" stroke-width="1.52" stroke-linecap="round" stroke-linejoin="round"/>
<path d="M957.86 532C957.86 532 912.443 505.582 857.632 526.756" stroke="#263238" stroke-width="1.52" stroke-linecap="round" stroke-linejoin="round"/>
<path opacity="0.1" d="M1166.6 607.635C1152.45 624.654 1135.59 639.215 1116.69 650.727C1110.8 654.251 1104.71 657.428 1098.45 660.242C1093.5 658.729 1088.65 656.948 1083.9 654.907C1055.54 642.747 1031.73 622.182 1008.48 601.905C994.447 589.745 980.19 577.281 963.394 569.27C940.681 558.531 914.841 556.403 890.677 563.282C903.175 549.176 920.166 539.826 938.77 536.818C926.762 525.89 910.057 521.299 893.823 521.01C877.59 520.722 868.652 522.713 852.783 526.27C858.088 516.511 872.163 507.68 883.275 507.938C872.712 507.798 862.166 507.052 851.689 505.704C837.355 503.394 830.941 486.522 828.798 472.173C822.87 432.653 828.874 390.564 850.443 356.972C854.713 350.272 859.653 344.023 865.187 338.322C882.423 330.646 901.043 325.493 917.961 321.282C948.577 313.719 980.871 317.051 1009.3 330.706C1029.19 340.146 1043.36 356.546 1060.1 370.363C1061.87 371.822 1063.65 373.277 1065.45 374.726C1082.35 388.333 1100.12 400.828 1118.65 412.133C1146.78 429.294 1175.59 445.482 1193.57 474.301C1222.27 520.235 1198.07 570.243 1166.6 607.635Z" fill="black"/>
<path d="M1182.44 606.48C1190.96 613.565 1199.88 620.162 1209.15 626.24C1227.22 627.456 1219.12 649.298 1219.12 649.298L1203.64 659.254C1203.64 659.254 1177.15 638.202 1162.68 631.378C1148.21 624.553 1182.44 606.48 1182.44 606.48Z" fill="white"/>
<path opacity="0.3" d="M1054.02 376.504C1054.02 376.504 1051.54 351.986 1047.59 345.101L987.577 332.88V328.229C987.577 328.229 988.96 320.142 975.584 315.081C962.208 310.019 934.331 316.601 927.141 322.042C919.952 327.484 922.581 336.847 922.581 336.847C922.581 336.847 898.413 349.053 887.561 353.704C878.677 357.803 870.016 362.369 861.614 367.384C861.614 367.384 856.689 423.746 857.662 436.833C858.635 449.92 856.872 462.232 857.997 469.482C859.121 476.733 860.003 480.852 867.603 487.023C875.203 493.194 882.119 502.223 902.046 493.27L899.265 491.066L1030.44 446.88L1054.02 376.504Z" fill="black"/>
<path d="M1054.02 376.504C1054.02 376.504 1051.54 351.986 1047.59 345.101L987.577 332.88V328.229C987.577 328.229 988.96 320.142 975.584 315.081C962.208 310.019 934.331 316.601 927.141 322.042C919.952 327.484 922.581 336.847 922.581 336.847C922.581 336.847 898.413 349.053 887.561 353.704C878.677 357.803 870.016 362.369 861.614 367.384C861.614 367.384 856.689 423.746 857.662 436.833C858.635 449.92 856.872 462.232 857.997 469.482C859.121 476.733 860.003 480.852 867.603 487.023C875.203 493.194 882.119 502.223 902.046 493.27L899.265 491.066L1030.44 446.88L1054.02 376.504Z" fill="#92E3A9"/>
<path opacity="0.05" d="M1054.02 376.504C1054.02 376.504 1051.54 351.986 1047.59 345.101L987.577 332.88V328.229C987.577 328.229 988.96 320.142 975.584 315.081C962.208 310.019 934.331 316.601 927.141 322.042C919.952 327.484 922.581 336.847 922.581 336.847C922.581 336.847 898.413 349.053 887.561 353.704C878.677 357.803 870.016 362.369 861.614 367.384C861.614 367.384 856.689 423.746 857.662 436.833C858.635 449.92 856.872 462.232 857.997 469.482C859.121 476.733 860.003 480.852 867.603 487.023C875.203 493.194 882.119 502.223 902.046 493.27L899.265 491.066L1030.44 446.88L1054.02 376.504Z" fill="black"/>
<path opacity="0.1" d="M1048.38 348.08H1023.27C1020.91 348.084 1018.62 348.924 1016.82 350.452C1015.02 351.98 1013.82 354.096 1013.43 356.425L1001.06 430.905C1001.06 430.905 984.02 432.318 971.951 441.119C959.883 449.92 930.197 387.129 883.29 387.098C883.29 387.098 896.787 417.954 899.782 442.578C899.782 442.578 870.461 439.386 865.597 450.862C860.733 462.338 867.801 483.846 880.204 475.517C892.607 467.187 904.281 453.294 912.565 462.08C920.849 470.866 957.861 475.593 957.861 475.593L1014.82 446.88L1036.9 436.498L1048.38 348.08Z" fill="black"/>
<path opacity="0.4" d="M968.653 311.159C968.653 311.159 982.91 315.111 985.221 319.899C987.531 324.687 987.288 336.802 987.288 336.802C983.828 344.898 978.586 352.11 971.951 357.899L961.311 336.802L962.269 360.726C962.269 360.726 942.083 357.367 933.51 350.922L924.953 344.462C924.953 344.462 921.259 332.302 921.791 328.183C922.323 324.064 937.721 315.704 937.721 315.704L968.653 311.159Z" fill="white"/>
<path d="M1206.14 680.078C1205.74 679.212 1211.99 668.177 1207.09 656.944C1202.2 645.711 1194.4 650.043 1194.4 650.043C1194.4 650.043 1172.2 635.907 1162.86 631.438C1156.14 628.061 1149.66 624.211 1143.48 619.917L1133.62 633.202L1142.74 661.413L1206.14 680.078Z" fill="#92E3A9"/>
<path d="M1193.6 649.359L1222.11 666.778C1222.11 666.778 1242.16 653.919 1251.72 645.042C1261.28 636.166 1282.76 617.257 1282.76 617.257L1296.44 598.85C1296.44 598.85 1286.96 587.115 1271.15 596.539C1250.72 608.699 1225.81 626.362 1209.19 626.194C1209.19 626.194 1212.46 646.608 1193.7 649.359" fill="#92E3A9"/>
<path d="M963.819 237.47C963.819 237.47 976.755 257.047 979.111 263.386C981.467 269.724 983.367 279.102 982.895 283.617C982.424 288.131 977.682 312.314 975.295 313.014L973 315.613L974.52 325.858C974.52 325.858 964.397 343.353 934.635 330.524C934.635 330.524 933.48 310.095 929.863 303.681C926.245 297.266 920.834 304.897 915.407 286.368C909.981 267.839 927.263 248.368 927.263 248.368L963.819 237.47Z" fill="white"/>
<path opacity="0.5" d="M1284.02 593.134C1284.02 593.134 1269.35 595.688 1264.6 604.367C1259.84 613.046 1250.7 629.174 1247.59 636.971C1244.47 644.769 1218.71 663.602 1218.71 663.602L1222.13 666.778C1222.13 666.778 1243.1 653.813 1255.77 641.486C1268.43 629.158 1296.35 598.15 1296.35 598.15C1296.35 598.15 1294.34 596.159 1284.02 593.134Z" fill="white"/>
<path opacity="0.5" d="M1137.25 628.322L1133.62 633.202L1144.77 656.336L1206.14 678.391L1208.98 669.408C1208.98 669.408 1209.92 660.288 1188.38 653.357C1166.85 646.426 1153.71 641.85 1147.59 637.093C1141.46 632.335 1137.25 628.322 1137.25 628.322Z" fill="white"/>
<path d="M934.681 456.502C934.681 456.502 915.894 453.674 907.123 469.042C898.353 484.409 899.25 491.066 899.25 491.066C899.25 491.066 911.668 502.345 928.738 501.706C945.807 501.068 970.659 481.521 978.761 475.152C986.863 468.783 1007.29 450.558 1021.23 454.328L1022.75 441.15C1022.75 441.15 1021.38 435.237 1009.46 436.833C997.548 438.429 992.867 445.223 989.021 445.223C985.175 445.223 981.543 441.53 973.821 454.723C973.806 454.723 946.704 459.526 934.681 456.502Z" fill="white"/>
<path d="M959.092 265.62C959.492 268.083 960.061 270.516 960.794 272.901C961.069 274.065 961.587 275.158 962.314 276.108C963.743 277.628 966.053 278.023 968.166 278.342C968.515 278.367 968.846 278.506 969.109 278.738C969.279 279.01 969.359 279.329 969.337 279.65C969.324 282.044 968.605 284.381 967.269 286.368" stroke="#263238" stroke-width="1.52" stroke-linecap="round" stroke-linejoin="round"/>
<path opacity="0.1" d="M1149.85 612.56L1137.25 628.262C1137.25 628.262 1151.08 641.045 1165.4 645.787C1179.72 650.53 1204.78 659.467 1208.98 666.353L1207.37 658.16C1207.37 658.16 1168.17 634.114 1159.17 628.368C1156.51 626.623 1154.28 624.29 1152.67 621.549C1151.05 618.808 1150.09 615.733 1149.85 612.56Z" fill="black"/>
<path opacity="0.1" d="M1193.6 649.359L1218.69 663.602C1218.69 663.602 1231.08 655.12 1237.16 648.873C1243.24 642.626 1250.73 635.694 1255.4 621.695C1261.77 602.346 1280.01 593.134 1280.01 593.134C1280.01 593.134 1254.64 605.082 1241.43 614.414C1228.22 623.747 1215.35 627.699 1207.87 627.061C1207.79 627.106 1213.8 646.106 1193.6 649.359Z" fill="black"/>
<path d="M950.246 289.818C950.246 289.818 960.111 297.555 970.355 294.652C970.355 294.652 960.688 313.804 950.246 289.818Z" fill="white" stroke="#263238" stroke-width="1.52" stroke-linecap="round" stroke-linejoin="round"/>
<path d="M949.881 273.098C950.17 275.226 949.516 277.066 948.452 277.218C947.388 277.37 946.278 275.698 945.99 273.615C945.701 271.533 946.339 269.648 947.418 269.496C948.498 269.344 949.653 270.97 949.881 273.098Z" fill="#263238"/>
<path d="M971.358 269.222C971.632 271.366 970.994 273.205 969.93 273.342C968.866 273.478 967.741 271.822 967.467 269.754C967.194 267.687 967.817 265.772 968.896 265.635C969.975 265.498 971.07 267.094 971.358 269.222Z" fill="#263238"/>
<path d="M948.361 264.07C948.361 264.07 942.615 261.106 938.526 267.459" stroke="#263238" stroke-width="1.52" stroke-linecap="round" stroke-linejoin="round"/>
<path d="M963.089 260.118C963.089 260.118 969.169 254.904 972.68 260.118" stroke="#263238" stroke-width="1.52" stroke-linecap="round" stroke-linejoin="round"/>
<path d="M928.844 283.632C928.844 283.632 925.15 278.175 921.244 278.342C917.337 278.51 915.787 283.982 917.185 289.271C918.584 294.561 924.405 301.948 928.813 301.249C931.3 300.928 933.568 299.666 935.152 297.722" stroke="#263238" stroke-width="1.52" stroke-linecap="round" stroke-linejoin="round"/>
<path d="M964.26 241.878C968.409 245.328 972.802 249.082 974.9 254.159C976.754 258.476 977.165 263.279 978.867 267.642C980.676 272.308 982.652 277.187 982.804 282.279C982.723 286.99 982.106 291.677 980.965 296.248C980.333 300.212 979.393 304.12 978.153 307.937C976.101 313.394 972.316 316.753 967.239 319.337C963.545 321.222 957.389 323.897 953.392 321.374C951.066 319.854 947.57 315.506 944.667 311.509" stroke="#263238" stroke-width="1.52" stroke-linecap="round" stroke-linejoin="round"/>
<path d="M928.844 301.249C928.844 301.249 935.38 317.27 933.799 328.533" stroke="#263238" stroke-width="1.52" stroke-linecap="round" stroke-linejoin="round"/>
<path d="M927.172 280.942C928.042 280.298 928.731 279.441 929.173 278.453C929.615 277.465 929.795 276.38 929.695 275.302C929.452 272.84 927.75 270.56 928.084 268.098C928.364 266.918 928.804 265.783 929.391 264.723C930.277 262.678 930.666 260.453 930.529 258.229C930.392 256.005 929.731 253.845 928.601 251.925C928.601 251.925 949.364 252.898 959.092 246.711C968.82 240.525 976.238 224.702 970.355 217.147C964.473 209.593 953.012 219.898 944.515 221.038C936.019 222.178 905.801 226.997 900.983 238.64C896.164 250.283 903.506 254.463 903.734 265.574C903.962 276.686 903.962 297.738 920.575 295.807C920.575 295.807 914.359 287.766 918.675 279.482C921.609 276.002 927.172 280.942 927.172 280.942Z" fill="#263238"/>
<path d="M967.892 230.28C970.712 232.476 973.049 235.228 974.759 238.366C976.469 241.504 977.516 244.96 977.833 248.52C978.76 256.85 993.535 273.038 982.879 282.264C982.879 282.264 980.402 272.46 978.943 267.626C977.483 262.793 975.614 253.946 973.167 250.906C970.719 247.866 957.739 237.226 957.739 237.226L967.892 230.28Z" fill="#263238"/>
<path d="M930.759 328.183C930.759 328.183 941.004 334.932 960.034 335.206L962.268 360.726C962.268 360.726 940.867 359.1 924.952 344.462C924.952 344.462 920.651 333.078 921.791 328.183C922.931 323.289 933.16 318.44 933.16 318.44" stroke="#263238" stroke-width="1.52" stroke-linecap="round" stroke-linejoin="round"/>
<path d="M973.805 316.768L974.413 325.888C970.401 330.067 965.481 333.265 960.034 335.236L971.951 357.93C971.951 357.93 986.163 346.864 987.576 335.236C987.576 335.236 987.698 323.334 985.22 319.93C982.743 316.525 973.714 314.929 973.714 314.929" stroke="#263238" stroke-width="1.52" stroke-linecap="round" stroke-linejoin="round"/>
<path opacity="0.8" d="M916.136 246.24C917.656 242.425 921.821 240.16 925.88 239.552C929.938 238.944 934.103 239.37 938.207 239.263C943.89 239.217 949.455 237.642 954.319 234.703C956.735 233.232 958.838 231.298 960.508 229.013C962.177 226.729 963.379 224.138 964.047 221.388" stroke="white" stroke-width="1.52" stroke-linecap="round" stroke-linejoin="round"/>
<path opacity="0.8" d="M906.332 245.495C908.901 237.698 917.231 232.879 925.423 232.195C929.482 231.846 933.586 232.317 937.583 231.846C941.581 231.374 945.837 229.702 947.95 226.222" stroke="white" stroke-width="1.52" stroke-linecap="round" stroke-linejoin="round"/>
<path d="M902.016 493.27C882.256 503.515 875.233 492.966 864.229 484.242C853.224 475.517 860.444 459.922 858.149 434.918C855.853 409.914 861.569 367.384 861.569 367.384C861.569 367.384 866.493 366.259 880.158 357.899C893.823 349.539 922.581 336.802 922.581 336.802" stroke="#263238" stroke-width="1.52" stroke-linecap="round" stroke-linejoin="round"/>
<path d="M921.593 455.422C921.593 455.422 918.462 445.497 909.616 445.238C900.769 444.98 886.816 448.962 876.875 467.765" stroke="#263238" stroke-width="1.52" stroke-linecap="round" stroke-linejoin="round"/>
<path d="M907.594 444.646C907.044 444.61 906.505 444.481 905.998 444.266C898.705 441.641 890.79 441.281 883.289 443.232" stroke="#263238" stroke-width="1.52" stroke-linecap="round" stroke-linejoin="round"/>
<path d="M878.198 380.958C894.294 398.742 902.138 422.271 909.57 445.071" stroke="#263238" stroke-width="1.52" stroke-linecap="round" stroke-linejoin="round"/>
<path d="M987.577 332.88C987.577 332.88 1016.76 339.842 1031.02 341.498C1045.28 343.155 1047.59 345.146 1047.59 345.146L1050.25 355.087" stroke="#263238" stroke-width="1.52" stroke-linecap="round" stroke-linejoin="round"/>
<path d="M1123.57 350.178L1024.18 353.993L1016.06 456.213H1033.09L1119.39 436.894L1130.24 352.625L1123.57 350.178Z" fill="white"/>
<path d="M1021.23 459.238L1129.94 355.042L1119.39 436.894L1021.23 459.238Z" fill="#92E3A9"/>
<path opacity="0.7" d="M1021.23 459.238L1129.94 355.042L1119.39 436.894L1021.23 459.238Z" fill="white"/>
<path d="M1021.23 456.502L1029.92 357.899L1130.24 352.625L1119.39 436.894L1021.23 456.502Z" stroke="#263238" stroke-width="1.52" stroke-linecap="round" stroke-linejoin="round"/>
<path d="M1087.96 400.398C1087.29 406.402 1084.08 410.962 1080.8 410.598C1077.51 410.233 1075.42 405.05 1076.09 399.046C1076.75 393.042 1079.98 388.482 1083.26 388.846C1086.54 389.211 1088.64 394.394 1087.96 400.398Z" fill="#263238"/>
<path d="M1119.39 436.894C1119.39 436.894 1165.33 435.586 1179.69 445.071C1194.05 454.556 1202.49 502.117 1200.5 527.379C1198.51 552.642 1181.18 610.614 1181.18 610.614L1147.98 573.04C1147.98 573.04 1131.63 513.578 1140.55 490.291C1140.55 490.291 1096.47 492.769 1079.11 487.327C1079.11 487.327 1063.56 461.867 1036.9 453.446L1119.39 436.894Z" fill="#263238"/>
<path d="M1188.19 611.602C1176.4 600.595 1165.81 588.367 1156.6 575.122C1140.53 550.301 1118.33 526.482 1095.48 507.893C1077.07 492.966 1072.91 468.646 1050.2 456.441C1012.58 436.27 980.052 476.353 967.892 484.47C955.732 492.586 934.68 501.782 934.68 501.782C934.68 501.782 942.372 530.662 964.959 534.082C987.546 537.502 1010.39 521.922 1021.2 529.446C1032.01 536.97 1040 570.562 1075.69 590.246C1104.86 606.328 1144.61 622.014 1165.11 632.594C1169.67 634.965 1173.08 637.458 1175.66 638.871C1182.74 642.732 1190.31 647.277 1197.46 651.776L1222.07 666.763C1222.07 666.763 1246.77 652.156 1256.25 638.689C1257.51 636.88 1260.14 632.062 1262.61 627.41C1267.97 617.242 1274.77 608.122 1284.17 603.09C1290.68 599.579 1296.47 598.53 1296.33 598.166C1295.71 597.01 1283.92 590.976 1275.91 594.274C1258.94 601.282 1225.03 628.201 1209.03 626.194C1201.58 622.084 1194.59 617.192 1188.19 611.602V611.602Z" stroke="#263238" stroke-width="1.52" stroke-miterlimit="10"/>
<path d="M1188.19 611.602C1173.4 617.576 1167.44 626.802 1165.16 632.609C1144.65 621.969 1104.91 606.343 1075.74 590.262C1040.05 570.502 1032.11 536.97 1021.24 529.462C1010.38 521.953 987.516 537.578 965.004 534.098C942.493 530.617 934.68 501.767 934.68 501.767C934.68 501.767 955.748 492.647 967.908 484.53C980.068 476.414 1008.11 436.316 1050.2 456.502C1073.44 467.643 1077.07 492.982 1095.48 507.954C1118.28 526.482 1140.53 550.362 1156.6 575.183C1165.78 588.426 1176.37 600.637 1188.19 611.602Z" fill="#263238"/>
<path d="M1077.04 482.737C1077.04 482.737 1065.66 459.602 1047.4 455.118" stroke="white" stroke-width="1.52" stroke-linecap="round" stroke-linejoin="round"/>
<path d="M1017.37 436.681C1004.81 433.945 991.027 447.822 985.221 445.223C980.904 443.293 973.805 454.723 973.805 454.723C962.121 456.41 950.306 457.006 938.511 456.502C921.593 455.422 913.583 458.721 907.594 467.765L899.234 489.911C899.234 489.911 921.289 509.671 944.834 498.165C968.379 486.658 999.661 451.942 1021.21 452.063" stroke="#263238" stroke-width="1.52" stroke-linecap="round" stroke-linejoin="round"/>
<path d="M1192.64 648.766C1192.64 648.766 1213.25 650.454 1208.42 625.83" stroke="#263238" stroke-width="1.52" stroke-miterlimit="10"/>
<path d="M1289.77 610.614C1288.25 613.654 1269.35 629.736 1253.08 643.796C1253.08 643.583 1257.64 634.995 1259.52 631.332C1263.85 623.246 1275.04 601.069 1296.33 598.15C1299.36 599.974 1289.77 610.614 1289.77 610.614Z" fill="#263238"/>
<path d="M1281.67 593.302C1260.13 597.588 1255.23 625.222 1247.59 636.971C1239.94 648.721 1218.71 664.696 1218.71 664.696" stroke="#263238" stroke-width="1.52" stroke-miterlimit="10"/>
<path d="M1207.09 657.643C1210.61 664.058 1208.95 671.506 1207.09 676.172C1206.19 678.49 1205.06 680.714 1203.72 682.814C1173.23 677.798 1142.74 661.413 1142.74 661.413L1134.88 637.093L1133.62 633.202L1145.46 617.257" stroke="#263238" stroke-width="1.52" stroke-miterlimit="10"/>
<path d="M1207.09 676.172C1206.19 678.49 1205.06 680.714 1203.72 682.814C1173.23 677.798 1142.74 661.413 1142.74 661.413L1134.88 637.093C1138.82 642.23 1146.11 649.754 1157.06 652.84C1171.91 657.05 1199.31 661.975 1207.09 676.172Z" fill="#263238"/>
<path d="M1016.06 452.656L1024.18 353.993L1123.57 350.178L1130.24 352.625" stroke="#263238" stroke-width="1.52" stroke-linecap="round" stroke-linejoin="round"/>
<path d="M1208.28 636.971C1208.28 636.971 1221.87 639.403 1232.31 630.891C1242.75 622.379 1259.58 603.121 1259.58 603.121" stroke="#263238" stroke-width="1.52" stroke-miterlimit="10"/>
<path d="M1222.11 624.72C1222.11 624.72 1218.83 629.66 1222.11 639.57" stroke="#263238" stroke-width="1.52" stroke-linecap="round" stroke-linejoin="round"/>
<path d="M1231.75 619.993C1230.26 624.919 1230.7 630.23 1232.98 634.843" stroke="#263238" stroke-width="1.52" stroke-linecap="round" stroke-linejoin="round"/>
<path d="M1243.24 613.335C1243.24 613.335 1240.49 621.589 1243.24 628.87" stroke="#263238" stroke-width="1.52" stroke-linecap="round" stroke-linejoin="round"/>
<path d="M1148.15 615.205L1137.25 628.322C1137.25 628.322 1148.23 640.315 1163.71 645.301C1179.2 650.286 1206.87 658.753 1209.16 667.766" stroke="#263238" stroke-width="1.52" stroke-miterlimit="10"/>
<path d="M1080.1 396C1079.49 396 1079 396.485 1079 397.083V403.917C1079 404.515 1079.49 405 1080.1 405C1080.71 405 1081.2 404.515 1081.2 403.917V397.083C1081.2 396.485 1080.71 396 1080.1 396Z" fill="#6FCF97"/>
<path d="M1083.08 398.864C1082.53 398.864 1082.08 399.305 1082.08 399.849V402.221C1082.08 402.765 1082.53 403.206 1083.08 403.206C1083.63 403.206 1084.08 402.765 1084.08 402.221V399.849C1084.08 399.305 1083.63 398.864 1083.08 398.864Z" fill="#6FCF97"/>
<path d="M1082.08 397.394C1082.08 396.85 1082.53 396.409 1083.08 396.409C1083.63 396.409 1084.08 396.85 1084.08 397.394V397.595C1084.08 398.139 1083.63 398.581 1083.08 398.581C1082.53 398.581 1082.08 398.139 1082.08 397.595V397.394Z" fill="#6FCF97"/>
<path d="M1086 399.366C1085.45 399.366 1085 399.807 1085 400.351V400.552C1085 401.096 1085.45 401.537 1086 401.537C1086.55 401.537 1087 401.096 1087 400.552V400.351C1087 399.807 1086.55 399.366 1086 399.366Z" fill="#6FCF97"/>
<defs>
<filter id="filter0_d_1726_7" x="-55.9558" y="592.034" width="549.293" height="595.581" filterUnits="userSpaceOnUse" color-interpolation-filters="sRGB">
<feFlood flood-opacity="0" result="BackgroundImageFix"/>
<feColorMatrix in="SourceAlpha" type="matrix" values="0 0 0 0 0 0 0 0 0 0 0 0 0 0 0 0 0 0 127 0" result="hardAlpha"/>
<feOffset dx="20.4354" dy="20.4354"/>
<feGaussianBlur stdDeviation="28.2009"/>
<feColorMatrix type="matrix" values="0 0 0 0 0 0 0 0 0 0 0 0 0 0 0 0 0 0 0.04 0"/>
<feBlend mode="normal" in2="BackgroundImageFix" result="effect1_dropShadow_1726_7"/>
<feBlend mode="normal" in="SourceGraphic" in2="effect1_dropShadow_1726_7" result="shape"/>
</filter>
<filter id="filter1_d_1726_7" x="-73.9558" y="592.034" width="549.293" height="595.581" filterUnits="userSpaceOnUse" color-interpolation-filters="sRGB">
<feFlood flood-opacity="0" result="BackgroundImageFix"/>
<feColorMatrix in="SourceAlpha" type="matrix" values="0 0 0 0 0 0 0 0 0 0 0 0 0 0 0 0 0 0 127 0" result="hardAlpha"/>
<feOffset dx="20.4354" dy="20.4354"/>
<feGaussianBlur stdDeviation="28.2009"/>
<feColorMatrix type="matrix" values="0 0 0 0 0 0 0 0 0 0 0 0 0 0 0 0 0 0 0.04 0"/>
<feBlend mode="normal" in2="BackgroundImageFix" result="effect1_dropShadow_1726_7"/>
<feBlend mode="normal" in="SourceGraphic" in2="effect1_dropShadow_1726_7" result="shape"/>
</filter>
</defs>
</svg>
